<svg xmlns="http://www.w3.org/2000/svg" width="70" height="70" viewBox="0 0 70 70">
  <g id="Group_750" data-name="Group 750" transform="translate(-135 -30)">
    <g id="Group_704" data-name="Group 704" transform="translate(135 30)">
      <path id="Path_56" data-name="Path 56" d="M282.6,318.465a35,35,0,1,1-35-35,35,35,0,0,1,35,35" transform="translate(-212.598 -283.465)" fill="#fff"/>
      <path id="Path_57" data-name="Path 57" d="M267.693,365.1a9.013,9.013,0,0,1-5.783-2.422l-.108-.114,1.836-2.531.156.144a6.38,6.38,0,0,0,4.14,1.745c1.522,0,2.4-.657,2.4-1.8,0-1.474-1.423-2.183-3.07-3-2.009-1-4.285-2.133-4.285-5.009,0-3.1,2.815-4.719,5.595-4.719a7.238,7.238,0,0,1,4.843,1.985l.1.108-1.718,2.639-.164-.164a4.572,4.572,0,0,0-3.041-1.411c-.967,0-2,.376-2,1.431,0,1.085,1.229,1.659,2.651,2.324,2.125.994,4.769,2.229,4.769,5.775,0,3.3-3.178,5.026-6.317,5.026" transform="translate(-241.551 -321.077)" fill="#00475b"/>
      <path id="Path_58" data-name="Path 58" d="M310.454,363.925h-3.9l-5.09-10.652-5.069,10.652h-3.882l8.973-17.9Z" transform="translate(-259.619 -320.277)" fill="#00475b"/>
      <path id="Path_59" data-name="Path 59" d="M230.483,365.289h-4.7V355.063h3.484v7.027h1.738c2.047,0,5.481-.692,5.481-5.328a4.932,4.932,0,0,0-5.088-5.218h-5.616v-3.2h5.223c5.58,0,9.185,3.33,9.185,8.484,0,5.22-3.721,8.462-9.71,8.462" transform="translate(-220.358 -321.641)" fill="#00475b"/>
      <path id="Path_60" data-name="Path 60" d="M348.891,365.289h-4.7c-5.99,0-9.71-3.242-9.71-8.462,0-5.154,3.6-8.484,9.184-8.484h5.223v3.2h-5.617a4.931,4.931,0,0,0-5.087,5.218c0,4.636,3.434,5.328,5.481,5.328h1.739v-7.027h3.485Z" transform="translate(-284.319 -321.641)" fill="#00475b"/>
    </g>
  </g>
</svg>
